<svg id="Line" xmlns="http://www.w3.org/2000/svg" viewBox="0 0 64 64"><title>Space</title><path d="M34.044,36.16309a1.00672,1.00672,0,0,0,1.44235-1.066L33.60547,24.64746l7.543-7.47314a1.00738,1.00738,0,0,0-.5684-1.70116L30.06055,14.03223,25.2832,4.55029a.99949.99949,0,0,0-1.793.01465L18.86914,14.124,8.375,15.73682a1.00037,1.00037,0,0,0-.54,1.71L15.499,24.7959l-1.71,10.479a1.00767,1.00767,0,0,0,1.46,1.04244l9.35642-5.01754ZM24.124,29.28857l-8.03418,4.3086,1.46778-8.998a1.001,1.001,0,0,0-.29492-.88281l-6.58106-6.31055L19.69336,16.021a.99961.99961,0,0,0,.74805-.55323l3.96777-8.20849,4.10156,8.14209a1.00081,1.00081,0,0,0,.75781.541l9.03223,1.23731-6.47656,6.417a1.00066,1.00066,0,0,0-.28027.8877l1.61523,8.97314-8.10449-4.17627A1.002,1.002,0,0,0,24.124,29.28857Z"/><path d="M56.4209,10.88184a.99955.99955,0,0,0-.8125-.67383l-4.20606-.57617-1.9082-3.791a1.00027,1.00027,0,0,0-1.79394.01465L45.85254,9.67725l-4.19629.645a1.00037,1.00037,0,0,0-.54,1.71l3.06445,2.938-.68359,4.18946a1.00034,1.00034,0,0,0,1.46,1.04248l3.74121-2.00586,3.77344,1.94434a1.00019,1.00019,0,0,0,1.44238-1.06641l-.75293-4.17774,3.01563-2.9873A.99879.99879,0,0,0,56.4209,10.88184Zm-5.041,2.96386a1.00112,1.00112,0,0,0-.28027.8877l.48633,2.70117-2.43946-1.25732a1.00621,1.00621,0,0,0-.93066.00781l-2.41894,1.29687.44238-2.70849a1.001,1.001,0,0,0-.29492-.88281l-1.98145-1.89942,2.71387-.417a.99959.99959,0,0,0,.748-.55322l1.19434-2.47071,1.2334,2.45069a1.00081,1.00081,0,0,0,.75781.541l2.71875.37256Z"/><path d="M54.56055,41.60938l-7.19336-1.10547-3.167-6.55225a1.0073,1.0073,0,0,0-1.794-.01461l-3.27344,6.49947-7.21093.98731a1.00037,1.00037,0,0,0-.56836,1.70117l5.16992,5.12256-1.28906,7.16211a.99979.99979,0,0,0,1.44238,1.06592l6.46972-3.3335,6.41309,3.43945a1.00034,1.00034,0,0,0,1.46-1.04248l-1.17187-7.18261,5.25293-5.03711A1.00727,1.00727,0,0,0,54.56055,41.60938ZM48.084,47.27686a1.001,1.001,0,0,0-.29492.88281l.92969,5.70166-5.09082-2.73047a.99929.99929,0,0,0-.93066-.00732L37.56152,53.77,38.585,48.08447a1.00335,1.00335,0,0,0-.28027-.88769l-4.10352-4.06641,5.72363-.78369a1.00079,1.00079,0,0,0,.75782-.541l2.59863-5.15918,2.51367,5.20118a.9996.9996,0,0,0,.748.55322l5.71094.87744Z"/><path d="M33.28516,50.00146l-4.19532-.645-1.84765-3.82129a.9997.9997,0,0,0-1.793-.01514l-1.91016,3.791-4.206.57617a1.00718,1.00718,0,0,0-.56832,1.70118l3.01558,2.98778-.752,4.17725a1.00722,1.00722,0,0,0,1.44241,1.06637l3.77341-1.9443,3.74121,2.00586a1.00034,1.00034,0,0,0,1.46-1.04248l-.68457-4.18946,3.06446-2.938A1.00719,1.00719,0,0,0,33.28516,50.00146Zm-4.28809,3.56836a1.00145,1.00145,0,0,0-.29492.88282l.44238,2.70849-2.41894-1.29687a.99934.99934,0,0,0-.93067-.00733l-2.43945,1.25684.48633-2.70068a1.0034,1.0034,0,0,0-.28028-.8877l-1.95019-1.93164,2.71972-.37256a.99811.99811,0,0,0,.75684-.54053l1.23535-2.45117,1.19434,2.47071a.99959.99959,0,0,0,.74805.55322l2.71289.417Z"/></svg>