<?xml version="1.0" encoding="UTF-8"?><svg id="Icons" xmlns="http://www.w3.org/2000/svg" viewBox="0 0 56.01 55.99"><defs><style>.cls-1{fill:#fff197;}.cls-2{fill:#b1b3b6;}</style></defs><path class="cls-1" d="M19,27.05v-1.06c0-.55,.45-1,1-1s1,.45,1,1v1.06c.89,.1,1.77,.35,2.58,.73,.99-1.98,.18-4.38-1.8-5.36-1.98-.99-4.38-.18-5.36,1.8-.56,1.12-.56,2.44,0,3.57,.81-.38,1.69-.63,2.58-.73Z"/><path class="cls-2" d="M9.09,50.59c-.32,1.77,.41,3.56,1.87,4.61,1.31,.96,3.06,1.06,4.47,.26l12.08-6.62c.3-.16,.66-.16,.96,0l12.08,6.62c1.41,.8,3.16,.69,4.47-.26,1.46-1.05,2.19-2.84,1.87-4.61l-2.31-14.01c-.05-.32,.05-.64,.27-.86l9.78-9.92c1.25-1.28,1.67-3.15,1.09-4.84-.49-1.6-1.86-2.78-3.51-3.04l-13.51-2.04c-.33-.05-.61-.26-.75-.56L31.93,2.55c-.97-2.17-3.51-3.14-5.68-2.18-.97,.43-1.74,1.21-2.18,2.18l-6.04,12.75c-.14,.3-.43,.51-.75,.56l-13.51,2.05c-1.66,.26-3.02,1.44-3.51,3.04-.58,1.69-.16,3.56,1.09,4.84l9.78,9.93c.22,.23,.33,.55,.27,.86l-2.31,14.01Zm26.02-17.04c.25-.49,.85-.69,1.34-.44,.49,.25,.69,.85,.44,1.34-.1,.19-2.35,4.55-8.9,4.55s-8.8-4.37-8.9-4.55c-.25-.49-.05-1.09,.44-1.34,.49-.25,1.09-.05,1.34,.44,.08,.15,1.86,3.45,7.11,3.45s7.04-3.31,7.11-3.45Z"/></svg>