<?xml version="1.0" encoding="UTF-8"?><svg id="Layer_1" xmlns="http://www.w3.org/2000/svg" xmlns:xlink="http://www.w3.org/1999/xlink" viewBox="0 0 304.93 52.46"><defs><style>.cls-1{fill:#d4145a;}.cls-2{fill:url(#radial-gradient-2);}.cls-3{fill:url(#radial-gradient);}</style><radialGradient id="radial-gradient" cx="126.32" cy="25.63" fx="-20.37" fy="25.63" r="169.83" gradientUnits="userSpaceOnUse"><stop offset="0" stop-color="#f9b03b"/><stop offset=".11" stop-color="#e8a538"/><stop offset=".33" stop-color="#be8833"/><stop offset=".64" stop-color="#7a5a2b"/><stop offset="1" stop-color="#231f20"/></radialGradient><radialGradient id="radial-gradient-2" cx="152.46" cy="26.23" fx="341.85" fy="90.91" r="228.6" gradientUnits="userSpaceOnUse"><stop offset="0" stop-color="#3faaf5"/><stop offset=".96" stop-color="#006eff"/></radialGradient></defs><g><g><g><path class="cls-1" d="M48.68,13.68h4.39l2.81-9.22,11.52-3.17-3.82,12.39h9.5l-2.38,7.92h-9.58l-4.54,14.83c-1.51,4.97,0,7.27,3.1,7.27,4.97,0,10.37-6.55,13.83-13.61,1.37,.07,3.38,1.15,4.1,2.02-4.9,10.73-11.67,18.94-21.46,18.94-10.37,0-11.81-8.78-9.15-17.43l3.6-12.03h-4.32l2.38-7.92Z"/><path class="cls-1" d="M113.48,13.68l-7.7,25.27c-.79,2.45-.94,4.75,1.3,4.75,3.24,0,7.42-5.54,11.38-13.61,1.37,.07,3.38,1.15,4.1,2.02-4.97,10.87-11.67,18.94-19.87,18.94-4.68,0-6.84-2.52-7.49-5.83-3.24,3.6-7.42,5.83-11.95,5.83-7.2,0-12.02-4.75-12.02-13.18,0-12.02,8.64-24.84,20.02-24.84,4.54,0,8.14,2.3,9.94,6.48l1.8-5.83h10.51Zm-21.1,9.07c-4.97,0-10.01,7.2-10.01,13.47,0,3.89,2.02,6.12,5.18,6.12,5.11,0,10.15-7.2,10.15-13.54,0-3.82-2.16-6.05-5.33-6.05Z"/><path class="cls-1" d="M118.45,30.1c1.51-3.31,3.02-6.98,4.32-10.73-1.51-1.44-2.52-3.24-2.52-5.54,0-3.67,2.81-6.48,6.34-6.48,2.59,0,4.54,1.37,5.54,3.17l-2.16,5.54,1.94,.72c7.78,3.1,12.1,6.05,9.5,14.55l-2.3,7.63c-.79,2.45-.86,4.75,1.3,4.75,3.24,0,7.42-5.54,11.38-13.61,1.37,.07,3.38,1.15,4.1,2.02-4.97,10.87-11.67,18.94-19.87,18.94s-8.64-8.28-6.77-14.4l2.09-6.7c1.15-3.82,1.37-5.69-1.51-6.84l-3.17-1.37c-1.15,3.46-2.52,6.98-4.1,10.37-1.44-.07-3.46-1.15-4.1-2.02Z"/><path class="cls-1" d="M173.75,21.17c-.58-.29-1.3-.43-2.16-.43-5.33,0-10.44,6.62-10.44,13.68,0,5.9,3.46,9.58,9.5,9.58,6.84,0,13.75-4.97,18.15-13.9,1.37,.07,3.38,1.15,4.1,2.02-4.97,10.87-13.18,19.15-25.56,19.15-10.66,0-17.43-6.05-17.43-15.91,0-10.73,8.06-22.32,20.95-22.32,9,0,13.18,5.54,13.18,10.73,0,3.89-2.38,7.92-6.77,7.92-3.24,0-5.83-2.59-5.83-5.83,0-1.87,.86-3.6,2.3-4.68Z"/><path class="cls-1" d="M197.86,0h10.51l-5.62,18.36c3.1-3.38,6.41-5.33,10.3-5.33,8.21,0,10.44,7.63,8.06,15.34l-3.24,10.58c-.79,2.45-.86,4.75,1.3,4.75,3.24,0,7.42-5.54,11.38-13.61,1.37,.07,3.38,1.15,4.1,2.02-4.97,10.87-11.66,18.94-19.87,18.94s-8.64-8.28-6.77-14.4l2.52-7.99c1.15-3.67,.72-6.84-2.95-6.84-2.88,0-5.26,2.09-7.34,4.68l-7.27,23.91h-10.51L197.86,0Z"/><path class="cls-1" d="M270.51,13.68l-7.71,25.27c-.79,2.45-.94,4.75,1.3,4.75,3.24,0,7.42-5.54,11.38-13.61,1.37,.07,3.38,1.15,4.1,2.02-4.97,10.87-11.66,18.94-19.87,18.94-4.68,0-6.84-2.52-7.49-5.83-3.24,3.6-7.42,5.83-11.95,5.83-7.2,0-12.03-4.75-12.03-13.18,0-12.02,8.64-24.84,20.02-24.84,4.54,0,8.14,2.3,9.94,6.48l1.8-5.83h10.51Zm-21.1,9.07c-4.97,0-10.01,7.2-10.01,13.47,0,3.89,2.02,6.12,5.18,6.12,5.11,0,10.15-7.2,10.15-13.54,0-3.82-2.16-6.05-5.33-6.05Z"/><path class="cls-1" d="M275.98,13.68h4.39l2.81-9.22,11.52-3.17-3.82,12.39h9.5l-2.38,7.92h-9.58l-4.54,14.83c-1.51,4.97,0,7.27,3.1,7.27,4.97,0,10.37-6.55,13.83-13.61,1.37,.07,3.38,1.15,4.1,2.02-4.9,10.73-11.66,18.94-21.46,18.94-10.37,0-11.81-8.78-9.14-17.43l3.6-12.03h-4.32l2.38-7.92Z"/></g><g><path class="cls-3" d="M48.68,13.68h4.39l2.81-9.22,11.52-3.17-3.82,12.39h9.5l-2.38,7.92h-9.58l-4.54,14.83c-1.51,4.97,0,7.27,3.1,7.27,4.97,0,10.37-6.55,13.83-13.61,1.37,.07,3.38,1.15,4.1,2.02-4.9,10.73-11.67,18.94-21.46,18.94-10.37,0-11.81-8.78-9.15-17.43l3.6-12.03h-4.32l2.38-7.92Z"/><path class="cls-3" d="M113.48,13.68l-7.7,25.27c-.79,2.45-.94,4.75,1.3,4.75,3.24,0,7.42-5.54,11.38-13.61,1.37,.07,3.38,1.15,4.1,2.02-4.97,10.87-11.67,18.94-19.87,18.94-4.68,0-6.84-2.52-7.49-5.83-3.24,3.6-7.42,5.83-11.95,5.83-7.2,0-12.02-4.75-12.02-13.18,0-12.02,8.64-24.84,20.02-24.84,4.54,0,8.14,2.3,9.94,6.48l1.8-5.83h10.51Zm-21.1,9.07c-4.97,0-10.01,7.2-10.01,13.47,0,3.89,2.02,6.12,5.18,6.12,5.11,0,10.15-7.2,10.15-13.54,0-3.82-2.16-6.05-5.33-6.05Z"/><path class="cls-3" d="M118.45,30.1c1.51-3.31,3.02-6.98,4.32-10.73-1.51-1.44-2.52-3.24-2.52-5.54,0-3.67,2.81-6.48,6.34-6.48,2.59,0,4.54,1.37,5.54,3.17l-2.16,5.54,1.94,.72c7.78,3.1,12.1,6.05,9.5,14.55l-2.3,7.63c-.79,2.45-.86,4.75,1.3,4.75,3.24,0,7.42-5.54,11.38-13.61,1.37,.07,3.38,1.15,4.1,2.02-4.97,10.87-11.67,18.94-19.87,18.94s-8.64-8.28-6.77-14.4l2.09-6.7c1.15-3.82,1.37-5.69-1.51-6.84l-3.17-1.37c-1.15,3.46-2.52,6.98-4.1,10.37-1.44-.07-3.46-1.15-4.1-2.02Z"/><path class="cls-3" d="M173.75,21.17c-.58-.29-1.3-.43-2.16-.43-5.33,0-10.44,6.62-10.44,13.68,0,5.9,3.46,9.58,9.5,9.58,6.84,0,13.75-4.97,18.15-13.9,1.37,.07,3.38,1.15,4.1,2.02-4.97,10.87-13.18,19.15-25.56,19.15-10.66,0-17.43-6.05-17.43-15.91,0-10.73,8.06-22.32,20.95-22.32,9,0,13.18,5.54,13.18,10.73,0,3.89-2.38,7.92-6.77,7.92-3.24,0-5.83-2.59-5.83-5.83,0-1.87,.86-3.6,2.3-4.68Z"/><path class="cls-3" d="M197.86,0h10.51l-5.62,18.36c3.1-3.38,6.41-5.33,10.3-5.33,8.21,0,10.44,7.63,8.06,15.34l-3.24,10.58c-.79,2.45-.86,4.75,1.3,4.75,3.24,0,7.42-5.54,11.38-13.61,1.37,.07,3.38,1.15,4.1,2.02-4.97,10.87-11.66,18.94-19.87,18.94s-8.64-8.28-6.77-14.4l2.52-7.99c1.15-3.67,.72-6.84-2.95-6.84-2.88,0-5.26,2.09-7.34,4.68l-7.27,23.91h-10.51L197.86,0Z"/><path class="cls-3" d="M270.51,13.68l-7.71,25.27c-.79,2.45-.94,4.75,1.3,4.75,3.24,0,7.42-5.54,11.38-13.61,1.37,.07,3.38,1.15,4.1,2.02-4.97,10.87-11.66,18.94-19.87,18.94-4.68,0-6.84-2.52-7.49-5.83-3.24,3.6-7.42,5.83-11.95,5.83-7.2,0-12.03-4.75-12.03-13.18,0-12.02,8.64-24.84,20.02-24.84,4.54,0,8.14,2.3,9.94,6.48l1.8-5.83h10.51Zm-21.1,9.07c-4.97,0-10.01,7.2-10.01,13.47,0,3.89,2.02,6.12,5.18,6.12,5.11,0,10.15-7.2,10.15-13.54,0-3.82-2.16-6.05-5.33-6.05Z"/><path class="cls-3" d="M275.98,13.68h4.39l2.81-9.22,11.52-3.17-3.82,12.39h9.5l-2.38,7.92h-9.58l-4.54,14.83c-1.51,4.97,0,7.27,3.1,7.27,4.97,0,10.37-6.55,13.83-13.61,1.37,.07,3.38,1.15,4.1,2.02-4.9,10.73-11.66,18.94-21.46,18.94-10.37,0-11.81-8.78-9.14-17.43l3.6-12.03h-4.32l2.38-7.92Z"/></g></g><path class="cls-1" d="M16.92,12.72c0,8.64,22.35,9.5,22.35,23.79,0,10.04-9.57,15.95-21.02,15.95-7.16,0-14.07-2.56-16.74-7.06-.97-1.58-1.51-3.49-1.51-5.4,0-4.21,1.58-7.52,3.49-7.52,1.48,0,2.16,1.94,3.02,3.67,2.56,5.54,6.95,9.43,12.71,9.43,4.79,0,7.34-2.84,7.34-5.9,0-9.11-20.95-9.54-20.95-23.61C5.62,6.63,14.54,1.16,23.72,1.16c5.36,0,8.42,1.66,10.65,1.66,1.55,0,2.05-.76,3.49-.76,2.81,0,2.27,2.77,2.56,7.06,.22,3.78,.58,5.76,.58,6.7,0,1.62-1.04,2.63-2.3,2.63-1.8,0-2.3-2.05-3.82-4.32-2.95-4.79-7.13-7.02-10.87-7.02-4.03,0-7.09,2.41-7.09,5.62Z"/></g><g><g><g><path class="cls-2" d="M48.68,13.68h4.39l2.81-9.22,11.52-3.17-3.82,12.39h9.5l-2.38,7.92h-9.58l-4.54,14.83c-1.51,4.97,0,7.27,3.1,7.27,4.97,0,10.37-6.55,13.83-13.61,1.37,.07,3.38,1.15,4.1,2.02-4.9,10.73-11.67,18.94-21.46,18.94-10.37,0-11.81-8.78-9.15-17.43l3.6-12.03h-4.32l2.38-7.92Z"/><path class="cls-2" d="M113.48,13.68l-7.7,25.27c-.79,2.45-.94,4.75,1.3,4.75,3.24,0,7.42-5.54,11.38-13.61,1.37,.07,3.38,1.15,4.1,2.02-4.97,10.87-11.67,18.94-19.87,18.94-4.68,0-6.84-2.52-7.49-5.83-3.24,3.6-7.42,5.83-11.95,5.83-7.2,0-12.02-4.75-12.02-13.18,0-12.02,8.64-24.84,20.02-24.84,4.54,0,8.14,2.3,9.94,6.48l1.8-5.83h10.51Zm-21.1,9.07c-4.97,0-10.01,7.2-10.01,13.47,0,3.89,2.02,6.12,5.18,6.12,5.11,0,10.15-7.2,10.15-13.54,0-3.82-2.16-6.05-5.33-6.05Z"/><path class="cls-2" d="M118.45,30.1c1.51-3.31,3.02-6.98,4.32-10.73-1.51-1.44-2.52-3.24-2.52-5.54,0-3.67,2.81-6.48,6.34-6.48,2.59,0,4.54,1.37,5.54,3.17l-2.16,5.54,1.94,.72c7.78,3.1,12.1,6.05,9.5,14.55l-2.3,7.63c-.79,2.45-.86,4.75,1.3,4.75,3.24,0,7.42-5.54,11.38-13.61,1.37,.07,3.38,1.15,4.1,2.02-4.97,10.87-11.67,18.94-19.87,18.94s-8.64-8.28-6.77-14.4l2.09-6.7c1.15-3.82,1.37-5.69-1.51-6.84l-3.17-1.37c-1.15,3.46-2.52,6.98-4.1,10.37-1.44-.07-3.46-1.15-4.1-2.02Z"/><path class="cls-2" d="M173.75,21.17c-.58-.29-1.3-.43-2.16-.43-5.33,0-10.44,6.62-10.44,13.68,0,5.9,3.46,9.58,9.5,9.58,6.84,0,13.75-4.97,18.15-13.9,1.37,.07,3.38,1.15,4.1,2.02-4.97,10.87-13.18,19.15-25.56,19.15-10.66,0-17.43-6.05-17.43-15.91,0-10.73,8.06-22.32,20.95-22.32,9,0,13.18,5.54,13.18,10.73,0,3.89-2.38,7.92-6.77,7.92-3.24,0-5.83-2.59-5.83-5.83,0-1.87,.86-3.6,2.3-4.68Z"/><path class="cls-2" d="M197.86,0h10.51l-5.62,18.36c3.1-3.38,6.41-5.33,10.3-5.33,8.21,0,10.44,7.63,8.06,15.34l-3.24,10.58c-.79,2.45-.86,4.75,1.3,4.75,3.24,0,7.42-5.54,11.38-13.61,1.37,.07,3.38,1.15,4.1,2.02-4.97,10.87-11.66,18.94-19.87,18.94s-8.64-8.28-6.77-14.4l2.52-7.99c1.15-3.67,.72-6.84-2.95-6.84-2.88,0-5.26,2.09-7.34,4.68l-7.27,23.91h-10.51L197.86,0Z"/><path class="cls-2" d="M270.51,13.68l-7.71,25.27c-.79,2.45-.94,4.75,1.3,4.75,3.24,0,7.42-5.54,11.38-13.61,1.37,.07,3.38,1.15,4.1,2.02-4.97,10.87-11.66,18.94-19.87,18.94-4.68,0-6.84-2.52-7.49-5.83-3.24,3.6-7.42,5.83-11.95,5.83-7.2,0-12.03-4.75-12.03-13.18,0-12.02,8.64-24.84,20.02-24.84,4.54,0,8.14,2.3,9.94,6.48l1.8-5.83h10.51Zm-21.1,9.07c-4.97,0-10.01,7.2-10.01,13.47,0,3.89,2.02,6.12,5.18,6.12,5.11,0,10.15-7.2,10.15-13.54,0-3.82-2.16-6.05-5.33-6.05Z"/><path class="cls-2" d="M275.98,13.68h4.39l2.81-9.22,11.52-3.17-3.82,12.39h9.5l-2.38,7.92h-9.58l-4.54,14.83c-1.51,4.97,0,7.27,3.1,7.27,4.97,0,10.37-6.55,13.83-13.61,1.37,.07,3.38,1.15,4.1,2.02-4.9,10.73-11.66,18.94-21.46,18.94-10.37,0-11.81-8.78-9.14-17.43l3.6-12.03h-4.32l2.38-7.92Z"/></g><g><path class="cls-2" d="M48.68,13.68h4.39l2.81-9.22,11.52-3.17-3.82,12.39h9.5l-2.38,7.92h-9.58l-4.54,14.83c-1.51,4.97,0,7.27,3.1,7.27,4.97,0,10.37-6.55,13.83-13.61,1.37,.07,3.38,1.15,4.1,2.02-4.9,10.73-11.67,18.94-21.46,18.94-10.37,0-11.81-8.78-9.15-17.43l3.6-12.03h-4.32l2.38-7.92Z"/><path class="cls-2" d="M113.48,13.68l-7.7,25.27c-.79,2.45-.94,4.75,1.3,4.75,3.24,0,7.42-5.54,11.38-13.61,1.37,.07,3.38,1.15,4.1,2.02-4.97,10.87-11.67,18.94-19.87,18.94-4.68,0-6.84-2.52-7.49-5.83-3.24,3.6-7.42,5.83-11.95,5.83-7.2,0-12.02-4.75-12.02-13.18,0-12.02,8.64-24.84,20.02-24.84,4.54,0,8.14,2.3,9.94,6.48l1.8-5.83h10.51Zm-21.1,9.07c-4.97,0-10.01,7.2-10.01,13.47,0,3.89,2.02,6.12,5.18,6.12,5.11,0,10.15-7.2,10.15-13.54,0-3.82-2.16-6.05-5.33-6.05Z"/><path class="cls-2" d="M118.45,30.1c1.51-3.31,3.02-6.98,4.32-10.73-1.51-1.44-2.52-3.24-2.52-5.54,0-3.67,2.81-6.48,6.34-6.48,2.59,0,4.54,1.37,5.54,3.17l-2.16,5.54,1.94,.72c7.78,3.1,12.1,6.05,9.5,14.55l-2.3,7.63c-.79,2.45-.86,4.75,1.3,4.75,3.24,0,7.42-5.54,11.38-13.61,1.37,.07,3.38,1.15,4.1,2.02-4.97,10.87-11.67,18.94-19.87,18.94s-8.64-8.28-6.77-14.4l2.09-6.7c1.15-3.82,1.37-5.69-1.51-6.84l-3.17-1.37c-1.15,3.46-2.52,6.98-4.1,10.37-1.44-.07-3.46-1.15-4.1-2.02Z"/><path class="cls-2" d="M173.75,21.17c-.58-.29-1.3-.43-2.16-.43-5.33,0-10.44,6.62-10.44,13.68,0,5.9,3.46,9.58,9.5,9.58,6.84,0,13.75-4.97,18.15-13.9,1.37,.07,3.38,1.15,4.1,2.02-4.97,10.87-13.18,19.15-25.56,19.15-10.66,0-17.43-6.05-17.43-15.91,0-10.73,8.06-22.32,20.95-22.32,9,0,13.18,5.54,13.18,10.73,0,3.89-2.38,7.92-6.77,7.92-3.24,0-5.83-2.59-5.83-5.83,0-1.87,.86-3.6,2.3-4.68Z"/><path class="cls-2" d="M197.86,0h10.51l-5.62,18.36c3.1-3.38,6.41-5.33,10.3-5.33,8.21,0,10.44,7.63,8.06,15.34l-3.24,10.58c-.79,2.45-.86,4.75,1.3,4.75,3.24,0,7.42-5.54,11.38-13.61,1.37,.07,3.38,1.15,4.1,2.02-4.97,10.87-11.66,18.94-19.87,18.94s-8.64-8.28-6.77-14.4l2.52-7.99c1.15-3.67,.72-6.84-2.95-6.84-2.88,0-5.26,2.09-7.34,4.68l-7.27,23.91h-10.51L197.86,0Z"/><path class="cls-2" d="M270.51,13.68l-7.71,25.27c-.79,2.45-.94,4.75,1.3,4.75,3.24,0,7.42-5.54,11.38-13.61,1.37,.07,3.38,1.15,4.1,2.02-4.97,10.87-11.66,18.94-19.87,18.94-4.68,0-6.84-2.52-7.49-5.83-3.24,3.6-7.42,5.83-11.95,5.83-7.2,0-12.03-4.75-12.03-13.18,0-12.02,8.64-24.84,20.02-24.84,4.54,0,8.14,2.3,9.94,6.48l1.8-5.83h10.51Zm-21.1,9.07c-4.97,0-10.01,7.2-10.01,13.47,0,3.89,2.02,6.12,5.18,6.12,5.11,0,10.15-7.2,10.15-13.54,0-3.82-2.16-6.05-5.33-6.05Z"/><path class="cls-2" d="M275.98,13.68h4.39l2.81-9.22,11.52-3.17-3.82,12.39h9.5l-2.38,7.92h-9.58l-4.54,14.83c-1.51,4.97,0,7.27,3.1,7.27,4.97,0,10.37-6.55,13.83-13.61,1.37,.07,3.38,1.15,4.1,2.02-4.9,10.73-11.66,18.94-21.46,18.94-10.37,0-11.81-8.78-9.14-17.43l3.6-12.03h-4.32l2.38-7.92Z"/></g><g><path class="cls-2" d="M48.68,13.68h4.39l2.81-9.22,11.52-3.17-3.82,12.39h9.5l-2.38,7.92h-9.58l-4.54,14.83c-1.51,4.97,0,7.27,3.1,7.27,4.97,0,10.37-6.55,13.83-13.61,1.37,.07,3.38,1.15,4.1,2.02-4.9,10.73-11.67,18.94-21.46,18.94-10.37,0-11.81-8.78-9.15-17.43l3.6-12.03h-4.32l2.38-7.92Z"/><path class="cls-2" d="M113.48,13.68l-7.7,25.27c-.79,2.45-.94,4.75,1.3,4.75,3.24,0,7.42-5.54,11.38-13.61,1.37,.07,3.38,1.15,4.1,2.02-4.97,10.87-11.67,18.94-19.87,18.94-4.68,0-6.84-2.52-7.49-5.83-3.24,3.6-7.42,5.83-11.95,5.83-7.2,0-12.02-4.75-12.02-13.18,0-12.02,8.64-24.84,20.02-24.84,4.54,0,8.14,2.3,9.94,6.48l1.8-5.83h10.51Zm-21.1,9.07c-4.97,0-10.01,7.2-10.01,13.47,0,3.89,2.02,6.12,5.18,6.12,5.11,0,10.15-7.2,10.15-13.54,0-3.82-2.16-6.05-5.33-6.05Z"/><path class="cls-2" d="M118.45,30.1c1.51-3.31,3.02-6.98,4.32-10.73-1.51-1.44-2.52-3.24-2.52-5.54,0-3.67,2.81-6.48,6.34-6.48,2.59,0,4.54,1.37,5.54,3.17l-2.16,5.54,1.94,.72c7.78,3.1,12.1,6.05,9.5,14.55l-2.3,7.63c-.79,2.45-.86,4.75,1.3,4.75,3.24,0,7.42-5.54,11.38-13.61,1.37,.07,3.38,1.15,4.1,2.02-4.97,10.87-11.67,18.94-19.87,18.94s-8.64-8.28-6.77-14.4l2.09-6.7c1.15-3.82,1.37-5.69-1.51-6.84l-3.17-1.37c-1.15,3.46-2.52,6.98-4.1,10.37-1.44-.07-3.46-1.15-4.1-2.02Z"/><path class="cls-2" d="M173.75,21.17c-.58-.29-1.3-.43-2.16-.43-5.33,0-10.44,6.62-10.44,13.68,0,5.9,3.46,9.58,9.5,9.58,6.84,0,13.75-4.97,18.15-13.9,1.37,.07,3.38,1.15,4.1,2.02-4.97,10.87-13.18,19.15-25.56,19.15-10.66,0-17.43-6.05-17.43-15.91,0-10.73,8.06-22.32,20.95-22.32,9,0,13.18,5.54,13.18,10.73,0,3.89-2.38,7.92-6.77,7.92-3.24,0-5.83-2.59-5.83-5.83,0-1.87,.86-3.6,2.3-4.68Z"/><path class="cls-2" d="M197.86,0h10.51l-5.62,18.36c3.1-3.38,6.41-5.33,10.3-5.33,8.21,0,10.44,7.63,8.06,15.34l-3.24,10.58c-.79,2.45-.86,4.75,1.3,4.75,3.24,0,7.42-5.54,11.38-13.61,1.37,.07,3.38,1.15,4.1,2.02-4.97,10.87-11.66,18.94-19.87,18.94s-8.64-8.28-6.77-14.4l2.52-7.99c1.15-3.67,.72-6.84-2.95-6.84-2.88,0-5.26,2.09-7.34,4.68l-7.27,23.91h-10.51L197.86,0Z"/><path class="cls-2" d="M270.51,13.68l-7.71,25.27c-.79,2.45-.94,4.75,1.3,4.75,3.24,0,7.42-5.54,11.38-13.61,1.37,.07,3.38,1.15,4.1,2.02-4.97,10.87-11.66,18.94-19.87,18.94-4.68,0-6.84-2.52-7.49-5.83-3.24,3.6-7.42,5.83-11.95,5.83-7.2,0-12.03-4.75-12.03-13.18,0-12.02,8.64-24.84,20.02-24.84,4.54,0,8.14,2.3,9.94,6.48l1.8-5.83h10.51Zm-21.1,9.07c-4.97,0-10.01,7.2-10.01,13.47,0,3.89,2.02,6.12,5.18,6.12,5.11,0,10.15-7.2,10.15-13.54,0-3.82-2.16-6.05-5.33-6.05Z"/><path class="cls-2" d="M275.98,13.68h4.39l2.81-9.22,11.52-3.17-3.82,12.39h9.5l-2.38,7.92h-9.58l-4.54,14.83c-1.51,4.97,0,7.27,3.1,7.27,4.97,0,10.37-6.55,13.83-13.61,1.37,.07,3.38,1.15,4.1,2.02-4.9,10.73-11.66,18.94-21.46,18.94-10.37,0-11.81-8.78-9.14-17.43l3.6-12.03h-4.32l2.38-7.92Z"/></g></g><g><path class="cls-2" d="M16.92,12.72c0,8.64,22.35,9.5,22.35,23.79,0,10.04-9.57,15.95-21.02,15.95-7.16,0-14.07-2.56-16.74-7.06-.97-1.58-1.51-3.49-1.51-5.4,0-4.21,1.58-7.52,3.49-7.52,1.48,0,2.16,1.94,3.02,3.67,2.56,5.54,6.95,9.43,12.71,9.43,4.79,0,7.34-2.84,7.34-5.9,0-9.11-20.95-9.54-20.95-23.61C5.62,6.63,14.54,1.16,23.72,1.16c5.36,0,8.42,1.66,10.65,1.66,1.55,0,2.05-.76,3.49-.76,2.81,0,2.27,2.77,2.56,7.06,.22,3.78,.58,5.76,.58,6.7,0,1.62-1.04,2.63-2.3,2.63-1.8,0-2.3-2.05-3.82-4.32-2.95-4.79-7.13-7.02-10.87-7.02-4.03,0-7.09,2.41-7.09,5.62Z"/><path class="cls-2" d="M16.92,12.72c0,8.64,22.35,9.5,22.35,23.79,0,10.04-9.57,15.95-21.02,15.95-7.16,0-14.07-2.56-16.74-7.06-.97-1.58-1.51-3.49-1.51-5.4,0-4.21,1.58-7.52,3.49-7.52,1.48,0,2.16,1.94,3.02,3.67,2.56,5.54,6.95,9.43,12.71,9.43,4.79,0,7.34-2.84,7.34-5.9,0-9.11-20.95-9.54-20.95-23.61C5.62,6.63,14.54,1.16,23.72,1.16c5.36,0,8.42,1.66,10.65,1.66,1.55,0,2.05-.76,3.49-.76,2.81,0,2.27,2.77,2.56,7.06,.22,3.78,.58,5.76,.58,6.7,0,1.62-1.04,2.63-2.3,2.63-1.8,0-2.3-2.05-3.82-4.32-2.95-4.79-7.13-7.02-10.87-7.02-4.03,0-7.09,2.41-7.09,5.62Z"/><path class="cls-2" d="M16.92,12.72c0,8.64,22.35,9.5,22.35,23.79,0,10.04-9.57,15.95-21.02,15.95-7.16,0-14.07-2.56-16.74-7.06-.97-1.58-1.51-3.49-1.51-5.4,0-4.21,1.58-7.52,3.49-7.52,1.48,0,2.16,1.94,3.02,3.67,2.56,5.54,6.95,9.43,12.71,9.43,4.79,0,7.34-2.84,7.34-5.9,0-9.11-20.95-9.54-20.95-23.61C5.62,6.63,14.54,1.16,23.72,1.16c5.36,0,8.42,1.66,10.65,1.66,1.55,0,2.05-.76,3.49-.76,2.81,0,2.27,2.77,2.56,7.06,.22,3.78,.58,5.76,.58,6.7,0,1.62-1.04,2.63-2.3,2.63-1.8,0-2.3-2.05-3.82-4.32-2.95-4.79-7.13-7.02-10.87-7.02-4.03,0-7.09,2.41-7.09,5.62Z"/></g></g></svg>